#!OML:ASF E:\Steps\Project 1\Capture day 1\Session 2\Subject.ASF
:FULLY-SPECIFIED
:DEGREES
461
root 9.49367 16.2484 5.92898 -159.066 -1.62734 177.669
lowerback -23.6211 -3.34475 -5.32663
upperback 0.489175 -3.27037 0.924897
thorax 14.2478 -2.00004 2.93308
lowerneck -4.65778 -2.61065 -2.12601
upperneck 22.6711 -2.22323 1.82693
head 7.78473 -0.490266 0.863638
rclavicle -9.60378e-015 -1.3418e-015
rhumerus -43.1271 -26.7896 -68.2628
rradius 23.6317
rwrist 5.21195
rhand -8.6092 -51.7292
rfingers 7.12502
rthumb 17.3226 -80.9772
lclavicle -9.60378e-015 -1.3418e-015
lhumerus -26.7985 -1.15651 82.4521
lradius 39.2183
lwrist 2.62262
lhand -22.7254 -14.0245
lfingers 7.12502
lthumb 3.70827 15.923
rfemur -34.1712 4.63695 18.7324
rtibia 15.2464
rfoot -10.8577 -5.48324
rtoes -25.6787
lfemur -30.6488 -6.80803 -22.8342
ltibia 49.9152
lfoot -1.74827 -4.30009
ltoes -18.8487
462
root 9.51809 16.2534 5.85699 -159.115 -1.77252 177.943
lowerback -23.7195 -3.25104 -5.08742
upperback 0.698606 -3.19131 0.958204
thorax 14.5335 -1.94941 2.85714
lowerneck -4.2829 -2.278 -1.55938
upperneck 21.8189 -1.85012 1.54572
head 7.4166 -0.325768 0.69942
rclavicle -1.12313e-014 -2.73329e-015
rhumerus -42.4711 -25.9801 -69.443
rradius 24.5038
rwrist 4.07823
rhand -8.56983 -51.4946
rfingers 7.12502
rthumb 17.3605 -80.7393
lclavicle -1.12313e-014 -2.73329e-015
lhumerus -26.5709 -1.18748 82.4043
lradius 38.6108
lwrist 2.61197
lhand -22.198 -13.5458
lfingers 7.12502
lthumb 4.21753 16.3922
rfemur -33.5848 4.35062 19.3309
rtibia 14.7823
rfoot -10.8592 -5.12096
rtoes -25.4682
lfemur -32.2812 -6.22028 -22.4314
ltibia 52.7277
lfoot 0.568326 -4.24056
ltoes -20.3076
463
root 9.54393 16.2597 5.78761 -159.179 -1.85652 178.045
lowerback -23.5729 -3.19053 -5.08039
upperback 0.760842 -3.11611 0.984669
thorax 14.5179 -1.91454 2.91547
lowerneck -4.12998 -2.18976 -1.56424
upperneck 21.4393 -1.80426 1.75921
head 7.26552 -0.301428 0.770836
rclavicle -2.62768e-014 4.4975e-015
rhumerus -42.0569 -25.2858 -70.2704
rradius 25.2675
rwrist 3.40779
rhand -8.53912 -51.1117
rfingers 7.12502
rthumb 17.39 -80.3537
lclavicle -2.62768e-014 4.4975e-015
lhumerus -26.5376 -1.36134 82.4173
lradius 38.0391
lwrist 2.48813
lhand -21.7946 -13.2487
lfingers 7.12502
lthumb 4.6071 16.6812
rfemur -32.9359 4.0004 19.7228
rtibia 14.3009
rfoot -10.9298 -4.66044
rtoes -24.7987
lfemur -33.8625 -5.6846 -22.2523
ltibia 55.3937
lfoot 2.39155 -4.27499
ltoes -23.5811
464
root 9.54314 16.2597 5.73967 -159.172 -2.35851 178.334
lowerback -22.9359 -3.09109 -4.47381
upperback 0.571788 -3.2015 1.05706
thorax 13.9047 -1.90257 2.64529
lowerneck -4.16973 -2.21073 -1.60259
upperneck 21.7516 -1.80182 1.84663
head 7.37638 -0.276516 0.809508
rclavicle 1.01504e-014 7.05686e-015
rhumerus -41.9834 -24.6038 -70.7543
rradius 25.9975
rwrist 2.87093
rhand -8.64186 -50.8107
rfingers 7.12502
rthumb 17.2912 -80.0615
lclavicle 1.01504e-014 7.05686e-015
lhumerus -26.8871 -1.5365 82.5312
lradius 37.5035
lwrist 2.10503
lhand -21.0785 -12.5687
lfingers 7.12502
lthumb 5.29854 17.345
rfemur -32.3877 2.99366 20.5233
rtibia 13.9332
rfoot -11.0608 -3.90022
rtoes -24.4456
lfemur -35.5974 -5.62077 -21.9024
ltibia 58.1094
lfoot 3.48957 -4.39374
ltoes -27.0337
465
root 9.56194 16.2597 5.67485 -159.061 -2.42656 178.48
lowerback -22.7952 -2.9683 -4.33166
upperback 0.464641 -3.09453 1.0776
thorax 13.6811 -1.84312 2.63129
lowerneck -4.05459 -2.28018 -1.48402
upperneck 21.7614 -1.88556 1.78527
head 7.35857 -0.306838 0.764466
rclavicle 1.89218e-014 1.03865e-014
rhumerus -41.9272 -23.6842 -71.4565
rradius 26.9165
rwrist 2.07437
rhand -8.78229 -50.8185
rfingers 7.12502
rthumb 17.156 -80.0811
lclavicle 1.89218e-014 1.03865e-014
lhumerus -27.2071 -1.75124 82.6502
lradius 36.8609
lwrist 1.84885
lhand -20.5726 -12.3354
lfingers 7.12502
lthumb 5.787 17.5656
rfemur -32.0843 2.79402 20.9229
rtibia 13.5847
rfoot -11.1122 -3.76095
rtoes -25.0838
lfemur -37.3815 -5.18344 -21.7309
ltibia 60.7206
lfoot 3.78541 -4.39316
ltoes -28.6589
466
root 9.59639 16.262 5.59736 -159.119 -2.25397 178.551
lowerback -22.871 -2.87807 -4.56681
upperback 0.53953 -2.90871 1.12592
thorax 13.812 -1.7788 2.88306
lowerneck -4.25965 -2.46636 -1.65754
upperneck 21.9886 -2.12864 1.87708
head 7.47794 -0.4216 0.805864
rclavicle -9.06955e-015 -2.23633e-015
rhumerus -41.6407 -22.3779 -72.4129
rradius 27.9556
rwrist 1.05935
rhand -8.7433 -51.0745
rfingers 7.12502
rthumb 17.1935 -80.3339
lclavicle -9.06955e-015 -2.23633e-015
lhumerus -27.4252 -2.07141 82.8238
lradius 36.2896
lwrist 1.6879
lhand -20.6731 -12.793
lfingers 7.12502
lthumb 5.69002 17.1106
rfemur -31.5353 3.18848 21.0314
rtibia 13.0652
rfoot -11.1037 -3.96746
rtoes -25.373
lfemur -38.9184 -4.50359 -21.6682
ltibia 63.2055
lfoot 3.22766 -4.23933
ltoes -28.7533
467
root 9.62267 16.2643 5.52861 -159.284 -2.19885 178.599
lowerback -22.6798 -2.81248 -4.7442
upperback 0.629405 -2.78146 1.19822
thorax 13.8108 -1.73505 3.11686
lowerneck -3.99426 -2.39608 -1.3374
upperneck 21.7919 -1.99848 1.5341
head 7.35557 -0.365445 0.650368
rclavicle 2.5842e-014 -1.88845e-015
rhumerus -41.1747 -21.1879 -73.2151
rradius 28.7851
rwrist 0.138738
rhand -8.91645 -51.0198
rfingers 7.12502
rthumb 17.0269 -80.2936
lclavicle 2.5842e-014 -1.88845e-015
lhumerus -27.451 -2.19834 83.0555
lradius 35.5583
lwrist 1.23547
lhand -20.7854 -12.8987
lfingers 7.12502
lthumb 5.58156 17.0078
rfemur -30.9017 3.302 21.1763
rtibia 12.6919
rfoot -11.1007 -3.87254
rtoes -25.4665
lfemur -40.3428 -4.00507 -21.6814
ltibia 65.6004
lfoot 2.12264 -3.79759
ltoes -29.5801
468
root 9.63881 16.2686 5.4642 -159.472 -2.08207 178.647
lowerback -22.4112 -2.68623 -4.75371
upperback 0.730197 -2.61162 1.19762
thorax 13.7595 -1.65503 3.18712
lowerneck -4.34379 -2.64115 -1.65417
upperneck 22.1642 -2.34424 1.8447
head 7.55497 -0.517849 0.779167
rclavicle 1.11319e-014 -1.37161e-014
rhumerus -40.6473 -20.4953 -73.8358
rradius 29.3972
rwrist -0.4061
rhand -9.27016 -50.6594
rfingers 7.12502
rthumb 16.6864 -79.9622
lclavicle 1.11319e-014 -1.37161e-014
lhumerus -27.4564 -2.1793 83.2451
lradius 34.7613
lwrist 0.750602
lhand -20.61 -12.8451
lfingers 7.12502
lthumb 5.75091 17.0569
rfemur -30.3292 3.18731 21.4012
rtibia 12.4756
rfoot -11.1394 -3.53303
rtoes -25.7353
lfemur -41.7062 -3.53463 -21.7778
ltibia 67.8068
lfoot 0.946068 -2.92986
ltoes -31.4299
469
root 9.65643 16.2731 5.40078 -159.622 -1.91451 178.611
lowerback -22.1856 -2.53485 -4.83865
upperback 0.819577 -2.37764 1.11595
thorax 13.7115 -1.54772 3.22799
lowerneck -4.08899 -2.50813 -1.6392
upperneck 21.599 -2.24853 2.03409
head 7.32283 -0.47862 0.842829
rclavicle -1.56046e-014 6.80837e-015
rhumerus -40.2891 -19.9254 -74.4511
rradius 30.1859
rwrist -0.850939
rhand -9.25096 -50.6673
rfingers 7.12502
rthumb 16.7049 -79.9685
lclavicle -1.56046e-014 6.80837e-015
lhumerus -27.6059 -2.41726 83.3698
lradius 34.1276
lwrist 0.536413
lhand -20.4369 -12.8927
lfingers 7.12502
lthumb 5.91806 17.0047
rfemur -29.7365 3.19322 21.4688
rtibia 12.1302
rfoot -11.1979 -3.32773
rtoes -25.4668
lfemur -43.1074 -3.12446 -21.9444
ltibia 69.8926
lfoot 0.00975995 -1.75358
ltoes -31.857
